<?xml version="1.0" encoding="UTF-8" standalone="yes"?>
<svg version="1.1" id="Ebene_1" xmlns="http://www.w3.org/2000/svg" xmlns:xlink="http://www.w3.org/1999/xlink" x="0px" y="0px" viewBox="0 0 48 48" style="enable-background:new 0 0 48 48;" xml:space="preserve" width="48" height="48">
  <style type="text/css">&#xD;
	.st0{fill:#FFFFFF;}&#xD;
</style>
  <path class="st0" d="M30,40.4c-0.5,0.2-1,0.1-1.4-0.2S28,39.5,28,38.9c0-0.3,0.1-0.5,0.2-0.7c0.1-0.2,0.3-0.3,0.6-0.4&#xD;&#xA;&#x9;c3-1,5.4-2.8,7.2-5.3s2.7-5.4,2.7-8.5s-0.9-6-2.7-8.6s-4.2-4.3-7.2-5.3c-0.2-0.1-0.4-0.2-0.6-0.4C28.1,9.5,28,9.2,28,8.9&#xD;&#xA;&#x9;c0-0.5,0.2-1,0.6-1.3c0.4-0.3,0.9-0.4,1.4-0.2c3.5,1.3,6.3,3.4,8.4,6.4c2.1,3,3.2,6.4,3.2,10.1s-1.1,7.1-3.2,10.1&#xD;&#xA;&#x9;C36.3,37.1,33.5,39.2,30,40.4z M7.8,29.9c-0.4,0-0.7-0.1-1-0.4c-0.3-0.3-0.4-0.6-0.4-1v-8.9c0-0.4,0.1-0.7,0.4-1&#xD;&#xA;&#x9;c0.3-0.3,0.6-0.4,1-0.4h6.4l7.4-7.4c0.4-0.4,0.9-0.5,1.5-0.3s0.9,0.7,0.9,1.3v24.4c0,0.6-0.3,1.1-0.9,1.3s-1.1,0.1-1.5-0.3l-7.4-7.4&#xD;&#xA;&#x9;H7.8z M27,32.3V15.6c1.8,0.6,3.3,1.6,4.4,3.2c1.1,1.6,1.6,3.3,1.6,5.2c0,1.9-0.5,3.6-1.6,5.1C30.3,30.6,28.8,31.7,27,32.3z"/>
</svg>